<?xml version="1.0" encoding="UTF-8"?>
<svg version="1.1" xmlns="http://www.w3.org/2000/svg" width="1080" height="1080">
<path d="M0 0 C356.4 0 712.8 0 1080 0 C1080 356.4 1080 712.8 1080 1080 C723.6 1080 367.2 1080 0 1080 C0 723.6 0 367.2 0 0 Z " fill="#FEFEFE" transform="translate(0,0)"/>
<path d="M0 0 C1.41477546 -0.00300322 2.82955011 -0.00640836 4.24432373 -0.01017761 C8.04025061 -0.0189051 11.83615486 -0.02135095 15.63209081 -0.0219934 C18.01785143 -0.02271052 20.40360653 -0.02485719 22.78936577 -0.02749062 C31.15303784 -0.0367079 39.51669411 -0.0408302 47.88037109 -0.04003906 C55.61069429 -0.03943974 63.34094739 -0.04997242 71.07125288 -0.06578273 C77.76229295 -0.0789676 84.45331042 -0.0842184 91.14436334 -0.08358365 C95.11650632 -0.08333179 99.08858689 -0.08600636 103.06071663 -0.0967617 C167.82308561 -0.25949028 167.82308561 -0.25949028 190.67553711 21.47338867 C206.50389801 38.55004302 208.29331487 60.95576845 208.32910156 83.08520508 C208.33537613 84.79616429 208.34202379 86.50712217 208.34901428 88.21807861 C208.36993695 93.81098503 208.38040481 99.40389135 208.39038086 104.99682617 C208.39443267 106.93092233 208.39854971 108.86501835 208.40273094 110.79911423 C208.4217558 119.88830381 208.43599311 128.97748541 208.44434291 138.06669104 C208.45410883 148.52144004 208.48042297 158.97597697 208.5208438 169.43065131 C208.5510994 177.53715898 208.56582066 185.64360616 208.56912392 193.75016916 C208.57146332 198.58018148 208.58027854 203.40996654 208.6055851 208.23991776 C208.62903739 212.78893317 208.63303089 217.33757439 208.62282372 221.88663483 C208.62233241 223.54451373 208.62853131 225.20241217 208.64237976 226.86023331 C208.74964102 240.47593539 206.9187555 253.1260127 200.52709961 265.39526367 C200.18791504 266.05582764 199.84873047 266.7163916 199.49926758 267.39697266 C191.42463846 282.40338835 178.07631802 291.73300349 162.15209961 297.14526367 C148.35688939 300.82016189 134.17418026 301.30507791 119.97631836 301.22729492 C118.49419766 301.22268495 117.01207574 301.21845635 115.529953 301.21455383 C112.08836742 301.20417011 108.6468221 301.18980227 105.20526123 301.17315674 C100.85732756 301.1523169 96.50939804 301.13560217 92.16143799 301.12127686 C77.12165648 301.07154913 62.08214552 301.00308577 47.04257393 300.90952873 C39.73640386 300.8643853 32.4302889 300.8248592 25.12402344 300.79882812 C18.63935064 300.77571864 12.15482652 300.74225082 5.67027205 300.69656211 C2.27318506 300.67294735 -1.12375874 300.65400959 -4.52092552 300.64764977 C-39.22038773 300.55831977 -39.22038773 300.55831977 -53.22290039 293.95776367 C-54.21302124 293.50494019 -54.21302124 293.50494019 -55.22314453 293.04296875 C-61.14629619 290.21652048 -66.10572131 286.69676073 -70.84790039 282.14526367 C-72.01579102 281.03731445 -72.01579102 281.03731445 -73.20727539 279.90698242 C-91.25349588 261.40657853 -92.0029605 235.98621114 -91.99316406 211.61889648 C-91.99616453 210.10763467 -91.99956907 208.59637361 -92.00334167 207.08511353 C-92.01209513 203.01875172 -92.01451609 198.95241101 -92.01515746 194.88604069 C-92.01587285 192.3351654 -92.01801631 189.78429531 -92.02065468 187.23342133 C-92.02987913 178.30494349 -92.03399317 169.37648049 -92.03320312 160.44799805 C-92.03260296 152.17230335 -92.04315024 143.89667395 -92.05894679 135.62099576 C-92.07209154 128.47572569 -92.07738414 121.33047678 -92.07674772 114.18519473 C-92.07649478 109.93540309 -92.07923147 105.68566961 -92.08992577 101.4358902 C-92.09972462 97.43352594 -92.09960675 93.43127409 -92.09240913 89.42890549 C-92.09137779 87.97505653 -92.09363776 86.52120013 -92.09976959 85.06736374 C-92.15261439 71.65000002 -91.75199318 57.5146813 -87.16040039 44.77026367 C-86.90129883 44.02478271 -86.64219727 43.27930176 -86.37524414 42.51123047 C-84.04870794 36.1222574 -80.94289344 30.58318747 -76.84790039 25.14526367 C-76.42379883 24.51749023 -75.99969727 23.8897168 -75.56274414 23.24291992 C-66.07731032 10.45063761 -47.24694173 3.72772882 -32.22744656 1.42527485 C-21.52563257 0.16594751 -10.76251354 -0.00379251 0 0 Z " fill="#5799F7" transform="translate(109.847900390625,367.854736328125)"/>
<path d="M0 0 C1.02683899 -0.00700928 2.05367798 -0.01401855 3.1116333 -0.02124023 C6.50023599 -0.03881816 9.88800036 -0.02719323 13.27661133 -0.01367188 C15.64065205 -0.01636786 18.0046917 -0.02025118 20.36872864 -0.02526855 C25.32421421 -0.03116423 30.27941127 -0.02260186 35.23486328 -0.00390625 C41.56526671 0.01882046 47.8949894 0.00579991 54.22536755 -0.01819611 C59.10951285 -0.03270529 63.993499 -0.02802352 68.87764931 -0.01768494 C71.2102803 -0.01502855 73.54292604 -0.01824882 75.87553978 -0.02760315 C79.14918167 -0.03784582 82.42174983 -0.02215652 85.6953125 0 C86.64686722 -0.00809692 87.59842194 -0.01619385 88.57881165 -0.02453613 C99.47704009 0.11102752 108.87862174 3.83138798 116.67114258 11.51757812 C125.50988964 21.92293025 126.13121542 33.3547837 126.06958008 46.49023438 C126.07160593 48.02380003 126.0745216 49.55736473 126.07827759 51.09092712 C126.08267561 54.28898381 126.07635113 57.48678742 126.06225586 60.68481445 C126.0451507 64.76205331 126.05502932 68.83870011 126.07297325 72.9159174 C126.08386737 76.07743203 126.08033936 79.23880866 126.07258987 82.40032768 C126.07060413 83.90286773 126.07298926 85.40542076 126.08002853 86.90794563 C126.10934476 94.92053314 126.00896196 102.09793156 122.67114258 109.51757812 C120.10864258 111.51757812 120.10864258 111.51757812 117.67114258 112.51757812 C116.68114258 113.01257813 116.68114258 113.01257813 115.67114258 113.51757812 C114.26778094 113.61141561 112.86006276 113.64387375 111.4535675 113.64456177 C110.56903397 113.64738159 109.68450043 113.65020142 108.77316284 113.65310669 C107.80017242 113.65108246 106.82718201 113.64905823 105.82470703 113.64697266 C104.80178055 113.64872498 103.77885406 113.65047729 102.72492981 113.65228271 C99.32807744 113.65669974 95.93127677 113.65376266 92.53442383 113.65039062 C90.17750539 113.65106397 87.82058702 113.65203425 85.46366882 113.65328979 C80.51467225 113.65476678 75.5656937 113.65261315 70.61669922 113.64794922 C64.27928123 113.64226753 57.94190574 113.64552103 51.60448933 113.65152168 C46.73255597 113.6551406 41.86063262 113.65398231 36.98869896 113.65139389 C34.65276268 113.65072749 32.31682549 113.65154301 29.98089027 113.65387344 C26.70875276 113.65642002 23.43668325 113.65253036 20.16455078 113.64697266 C18.72024689 113.650009 18.72024689 113.650009 17.24676514 113.65310669 C6.686807 113.61997054 -1.14951969 112.24653866 -9.20385742 104.89257812 C-9.90510742 104.10882812 -10.60635742 103.32507813 -11.32885742 102.51757812 C-11.82514648 102.05867187 -12.32143555 101.59976563 -12.83276367 101.12695312 C-14.5212298 99.31063969 -15.38897261 97.657075 -16.39135742 95.39257812 C-16.71233398 94.68875 -17.03331055 93.98492188 -17.36401367 93.25976562 C-20.61345728 84.02450485 -20.65540521 74.98679432 -20.66479492 65.31835938 C-20.67123307 63.75375755 -20.67796216 62.18915689 -20.68496704 60.6245575 C-20.69688226 57.36092332 -20.70065335 54.0973946 -20.69946289 50.83374023 C-20.69925892 46.6608178 -20.72666698 42.48857036 -20.76100731 38.3158083 C-20.78327407 35.09094655 -20.78730067 31.86624811 -20.78624344 28.64131737 C-20.78859565 27.10278158 -20.79739777 25.56424103 -20.81290817 24.02578163 C-20.83258475 21.87453553 -20.82672767 19.72475788 -20.81469727 17.57348633 C-20.8175473 16.35264847 -20.82039734 15.13181061 -20.82333374 13.87397766 C-20.04105901 8.56406402 -17.64864782 5.70470517 -13.72441101 2.17492676 C-9.06068857 -0.10140722 -5.12538014 -0.04315364 0 0 Z " fill="#DDE4F8" transform="translate(87.328857421875,460.482421875)"/>
<path d="M0 0 C2.69990662 1.79993774 4.5418865 3.083773 6 6 C6.10402371 9.05531523 6.14680011 12.08802489 6.14526367 15.14379883 C6.14862228 16.09190933 6.1519809 17.04001984 6.15544128 18.01686096 C6.16497088 21.16359758 6.16689552 24.31028108 6.16796875 27.45703125 C6.17118035 29.63937909 6.17454435 31.82172671 6.17805481 34.0040741 C6.1840514 38.58483377 6.18589421 43.16557457 6.18530273 47.74633789 C6.18520118 53.61765101 6.1988444 59.48884302 6.21607494 65.36012745 C6.22719206 69.86997535 6.22922202 74.37979396 6.22869301 78.88965416 C6.22987391 81.05420028 6.23430181 83.21874714 6.24202538 85.3832798 C6.25181765 88.41161196 6.24894995 91.43968123 6.24291992 94.46801758 C6.24853943 95.36327148 6.25415894 96.25852539 6.25994873 97.1809082 C6.23790971 101.53444831 6.14919324 105.08460201 4 109 C1.69781115 110.79059133 -0.25430207 111.05086041 -3.125 111.625 C-9.14137808 110.65461644 -12.52226972 106.95532842 -17 103 C-18.08061827 102.08532434 -19.16406284 101.1739795 -20.25 100.265625 C-23.02116181 97.94734883 -25.77378454 95.6085453 -28.51953125 93.26025391 C-29.83879917 92.13722274 -31.16869117 91.02669939 -32.5 89.91796875 C-37.32549782 85.84645497 -40.66917339 82.34162332 -42 76 C-42.1014124 74.59763844 -42.15775705 73.19153644 -42.17700195 71.78564453 C-42.18983719 70.96444122 -42.20267242 70.14323792 -42.21589661 69.29714966 C-42.22328354 68.4179184 -42.23067047 67.53868713 -42.23828125 66.6328125 C-42.246353 65.72046844 -42.25442474 64.80812439 -42.26274109 63.86813354 C-42.27655377 61.93994024 -42.28728848 60.01172278 -42.29516602 58.08349609 C-42.30670145 56.11467308 -42.32717785 54.14588171 -42.35668945 52.17724609 C-42.39938385 49.32888589 -42.41553615 46.48145303 -42.42578125 43.6328125 C-42.44328934 42.7576297 -42.46079742 41.8824469 -42.47883606 40.98074341 C-42.45554942 34.39403169 -40.5891917 30.98131873 -36.24609375 25.98046875 C-31.69111948 21.46484631 -26.89375971 17.39370541 -21.890625 13.3828125 C-17.85789552 10.0585355 -14.04154773 6.52643175 -10.21484375 2.96875 C-6.74729922 -0.1135118 -4.61953412 -0.4528955 0 0 Z " fill="#D8E0F6" transform="translate(264,462)"/>
<path d="M0 0 C0.33 0 0.66 0 1 0 C1.00586624 0.72503723 1.01173248 1.45007446 1.01777649 2.19708252 C1.07604544 9.08069525 1.148313 15.96403939 1.23571491 22.84733963 C1.28015524 26.38485622 1.31946638 29.92226459 1.34643555 33.45996094 C1.37778643 37.54129841 1.43256085 41.62204689 1.48828125 45.703125 C1.49467117 46.95361633 1.5010611 48.20410767 1.50764465 49.49249268 C1.68673451 60.35269104 2.83327527 71.34978415 10 80 C11.63072616 81.37705764 13.2866438 82.72722111 15 84 C15 84.66 15 85.32 15 86 C15.928125 86.28875 16.85625 86.5775 17.8125 86.875 C21 88 21 88 24 90 C29.79248045 91.17338616 35.54652801 91.15425751 41.42993164 91.16113281 C42.45519455 91.16609772 43.48045746 91.17106262 44.53678894 91.17617798 C47.91125164 91.19072376 51.28566742 91.19758697 54.66015625 91.203125 C57.01232402 91.20888027 59.36449179 91.21463796 61.71665955 91.22039795 C66.639966 91.23088463 71.56325622 91.23674335 76.48657227 91.24023438 C82.79375735 91.24573101 89.10072786 91.26979394 95.4078455 91.29820633 C100.26257457 91.31682543 105.11725171 91.32203781 109.97201347 91.32357025 C112.29762388 91.32659614 114.62323338 91.33462251 116.94880867 91.34775543 C120.19919393 91.36480921 123.44905105 91.36293772 126.69946289 91.35644531 C127.6580722 91.3656601 128.61668152 91.37487488 129.6043396 91.3843689 C134.78537136 91.35194989 138.58848972 91.03914509 143 88 C148.07054588 81.19185336 146.37302476 69.79233028 146.29296875 61.71484375 C146.28736464 60.04619226 146.2830984 58.37753578 146.28010559 56.70887756 C146.26872089 52.34406603 146.23930962 47.97956004 146.20599365 43.61486816 C146.17515432 39.15018851 146.16157079 34.68545888 146.14648438 30.22070312 C146.11443295 21.48032946 146.06331504 12.74020288 146 4 C149.28200348 7.49549244 149.36214638 10.07841292 149.32470703 14.78466797 C149.32353882 15.45836426 149.32237061 16.13206055 149.32116699 16.82617188 C149.3139922 19.04849249 149.2857841 21.27003979 149.2578125 23.4921875 C149.2496715 25.04150711 149.24300999 26.59083513 149.23776245 28.14016724 C149.22065125 32.21836308 149.18641435 36.29622617 149.14770508 40.37426758 C149.08851018 46.89398056 149.05452627 53.41385949 149.02193832 59.93375015 C149.00803402 62.20598709 148.98642796 64.47805035 148.96365356 66.75021362 C148.95362275 68.15232217 148.94375694 69.55443192 148.93408203 70.95654297 C148.92281281 72.17469696 148.91154358 73.39285095 148.89993286 74.6479187 C148.99583476 77.86047144 149.46368334 80.83786287 150 84 C148.98863576 89.81534438 145.44659929 94.26020422 141 98 C137.25 98.9375 137.25 98.9375 134 99 C133.01 99.33 132.02 99.66 131 100 C129.88625 99.835 128.7725 99.67 127.625 99.5 C124.21959348 98.82538642 124.21959348 98.82538642 121.75798035 99.45967102 C118.24599977 100.14771975 114.81043169 100.14752405 111.24731445 100.14526367 C110.4823616 100.14862228 109.71740875 100.1519809 108.92927551 100.15544128 C106.40726076 100.16491779 103.88531269 100.166893 101.36328125 100.16796875 C99.60076368 100.17118457 97.83824638 100.17454889 96.07572937 100.17805481 C92.38129051 100.18403851 88.68687501 100.18589558 84.99243164 100.18530273 C80.27968106 100.18520137 75.56708202 100.19882995 70.85436726 100.21607494 C67.21245143 100.22724696 63.57057157 100.22922032 59.92864037 100.22869301 C58.19247098 100.2298662 56.45630046 100.23425051 54.72014809 100.24202538 C43.2404684 100.2886051 32.74551559 100.15401995 22.23046875 95.0546875 C20.00387752 93.95950684 20.00387752 93.95950684 17.61328125 93.1328125 C12.16301029 91.09684351 9.62918329 88.89382877 6.77734375 83.8046875 C6 82 6 82 6 80 C5.34 80 4.68 80 4 80 C3.54625 78.865625 3.0925 77.73125 2.625 76.5625 C1.42904194 72.95278308 1.42904194 72.95278308 -1 72 C-3.49460494 62.59401375 -3.45256199 52.48541869 -3.68798828 42.81542969 C-3.75009962 40.37107971 -3.83335033 37.92803749 -3.91796875 35.484375 C-4.16930415 27.04570084 -3.97761699 19.2633513 -2 11 C-1.79117188 9.85144531 -1.58234375 8.70289063 -1.3671875 7.51953125 C-0.91145833 5.01302083 -0.45572917 2.50651042 0 0 Z " fill="#2151A7" transform="translate(66,482)"/>
<path d="M0 0 C3 1 3 1 4.375 3.3125 C6.18995582 6.31415771 8.2640794 7.8556298 11 10 C11 10.66 11 11.32 11 12 C11.928125 12.28875 12.85625 12.5775 13.8125 12.875 C17 14 17 14 20 16 C25.79248045 17.17338616 31.54652801 17.15425751 37.42993164 17.16113281 C38.45519455 17.16609772 39.48045746 17.17106262 40.53678894 17.17617798 C43.91125164 17.19072376 47.28566742 17.19758697 50.66015625 17.203125 C53.01232402 17.20888027 55.36449179 17.21463796 57.71665955 17.22039795 C62.639966 17.23088463 67.56325622 17.23674335 72.48657227 17.24023438 C78.79375735 17.24573101 85.10072786 17.26979394 91.4078455 17.29820633 C96.26257457 17.31682543 101.11725171 17.32203781 105.97201347 17.32357025 C108.29762388 17.32659614 110.62323338 17.33462251 112.94880867 17.34775543 C116.19919393 17.36480921 119.44905105 17.36293772 122.69946289 17.35644531 C124.13737686 17.37026749 124.13737686 17.37026749 125.6043396 17.3843689 C130.80939107 17.35179959 134.52927263 16.9793247 139 14 C140.80796103 11.43389334 140.80796103 11.43389334 142 9 C142.33 9 142.66 9 143 9 C143 11.31 143 13.62 143 16 C142.34 16 141.68 16 141 16 C141 16.66 141 17.32 141 18 C132.07365478 23.12438336 132.07365478 23.12438336 127.7756958 23.13371277 C126.44672775 23.14011024 126.44672775 23.14011024 125.09091187 23.14663696 C124.1163504 23.14618378 123.14178894 23.14573059 122.13769531 23.14526367 C120.60089615 23.15030159 120.60089615 23.15030159 119.03305054 23.15544128 C115.6313965 23.16497355 112.22979158 23.16689571 108.828125 23.16796875 C106.46881083 23.17118037 104.10949685 23.17454437 101.75018311 23.17805481 C96.79699238 23.18405221 91.84381911 23.18589415 86.890625 23.18530273 C80.54410888 23.18520122 74.19770492 23.19883975 67.85121536 23.21607494 C62.97503139 23.2271966 58.09887449 23.22922187 53.22267914 23.22869301 C50.88312138 23.2298734 48.54356293 23.23429848 46.20401764 23.24202538 C42.92922642 23.25182594 39.65467797 23.24894652 36.37988281 23.24291992 C35.41341827 23.24853943 34.44695374 23.25415894 33.45120239 23.25994873 C22.43938334 23.20847084 22.43938334 23.20847084 18.390625 19.54296875 C17.93171875 19.03378906 17.4728125 18.52460937 17 18 C15.59912971 17.0796608 14.180842 16.18551374 12.75 15.3125 C7.71568581 12.01387257 2.1409018 7.72089565 0.3125 1.7578125 C0.209375 1.17773438 0.10625 0.59765625 0 0 Z " fill="#1B4290" transform="translate(70,556)"/>
<path d="M0 0 C0.33 0 0.66 0 1 0 C1.64781791 24.31212364 2.10482819 48.61602527 2.125 72.9375 C2.12749756 73.9980661 2.12999512 75.0586322 2.13256836 76.15133667 C2.13844201 79.17253922 2.13698984 82.19364017 2.1328125 85.21484375 C2.13479645 86.10461914 2.1367804 86.99439453 2.13882446 87.91113281 C2.09030126 100.90969874 2.09030126 100.90969874 -0.5234375 103.5234375 C-6.8359899 106.4266789 -9.31097668 107.14553578 -16 105 C-16.0928125 104.071875 -16.0928125 104.071875 -16.1875 103.125 C-16.455625 102.42375 -16.72375 101.7225 -17 101 C-18.65697379 100.30959426 -20.3255761 99.6469365 -22 99 C-23.70779973 97.37550757 -25.37550757 95.70779973 -27 94 C-27.763125 93.443125 -28.52625 92.88625 -29.3125 92.3125 C-29.869375 91.879375 -30.42625 91.44625 -31 91 C-31 90.34 -31 89.68 -31 89 C-31.763125 88.71125 -32.52625 88.4225 -33.3125 88.125 C-36 87 -36 87 -39 85 C-39 84.34 -39 83.68 -39 83 C-39.5775 82.773125 -40.155 82.54625 -40.75 82.3125 C-43.76818146 80.55189415 -45.1548117 78.9904776 -47 76 C-47.60778633 73.00627562 -47.86713817 70.04917893 -48 67 C-47.566875 67.58394531 -47.13375 68.16789063 -46.6875 68.76953125 C-40.96601426 76.331958 -34.44400963 82.14676503 -27 88 C-25.18690141 89.45758906 -23.37436973 90.91588367 -21.5625 92.375 C-20.04621073 93.58903061 -18.52575635 94.79788893 -17 96 C-16.31808594 96.56332031 -15.63617188 97.12664062 -14.93359375 97.70703125 C-11.95664226 99.69767962 -9.48724617 99.31136127 -6 99 C-3.62818755 98.40019748 -3.62818755 98.40019748 -2 97 C-1.12580963 94.30004576 -0.86851445 91.81438471 -0.84178162 88.98834229 C-0.8319928 88.2003273 -0.82220398 87.41231232 -0.81211853 86.60041809 C-0.80636307 85.74518051 -0.8006076 84.88994293 -0.79467773 84.00878906 C-0.78477814 83.10112289 -0.77487854 82.19345673 -0.76467896 81.25828552 C-0.73311371 78.26075847 -0.70832614 75.26321557 -0.68359375 72.265625 C-0.66301993 70.18625478 -0.64202334 68.10688871 -0.62062073 66.02752686 C-0.56544428 60.55641028 -0.51601544 55.08525624 -0.46777344 49.61407471 C-0.41752612 44.03044299 -0.36185691 38.44686565 -0.30664062 32.86328125 C-0.19911318 21.90890062 -0.09765615 10.95447277 0 0 Z " fill="#304F92" transform="translate(270,473)"/>
<path d="M0 0 C37.29 0 74.58 0 113 0 C113 0.66 113 1.32 113 2 C110.20604496 2.93131835 108.53419304 3.12557521 105.64871216 3.12698364 C104.31551437 3.13121338 104.31551437 3.13121338 102.9553833 3.13552856 C101.98284607 3.13350433 101.01030884 3.1314801 100.00830078 3.12939453 C98.98201569 3.13114685 97.95573059 3.13289917 96.89834595 3.13470459 C93.49731772 3.13911467 90.09634128 3.13618762 86.6953125 3.1328125 C84.33503204 3.13348588 81.97475165 3.1344562 79.61447144 3.13571167 C74.66305889 3.13718758 69.71166436 3.13503786 64.76025391 3.13037109 C58.41257857 3.12468012 52.06494558 3.1279495 45.7172718 3.13394356 C40.84113242 3.13755734 35.96500306 3.1364067 31.08886337 3.13381577 C28.74848297 3.13314844 26.40810166 3.13396815 24.06772232 3.13629532 C20.79528645 3.13883451 17.52291905 3.13496299 14.25048828 3.12939453 C13.28199951 3.13141876 12.31351074 3.13344299 11.31567383 3.13552856 C10.42123566 3.13270874 9.52679749 3.12988892 8.60525513 3.12698364 C7.44549258 3.1264181 7.44549258 3.1264181 6.26230049 3.12584114 C3.7683371 2.98711368 1.43557806 2.54175686 -1 2 C-0.67 1.34 -0.34 0.68 0 0 Z " fill="#293C78" transform="translate(93,574)"/>
<path d="M0 0 C3.2434574 3.2434574 3.9343963 7.11745905 4.08984375 11.578125 C4.07214401 13.30764226 4.0343886 15.03711918 3.97265625 16.765625 C3.88867866 19.17369465 3.88867866 19.17369465 5 22 C4.67 22.99 4.34 23.98 4 25 C4.350625 26.155 4.70125 27.31 5.0625 28.5 C6.57138796 33.85605262 5.2669344 38.69836684 4 44 C4.66 44 5.32 44 6 44 C6.02929981 47.83331699 6.04689897 51.66660471 6.0625 55.5 C6.07087891 56.57765625 6.07925781 57.6553125 6.08789062 58.765625 C6.11546191 67.80900741 6.11546191 67.80900741 5.48828125 72.01953125 C4.54434944 78.41960554 5.03566184 84.97326852 5.21484375 91.41992188 C5.22902344 92.45052734 5.24320312 93.48113281 5.2578125 94.54296875 C5.2798877 95.47133545 5.30196289 96.39970215 5.32470703 97.35620117 C4.93455927 100.5328253 3.8504933 102.41649633 2 105 C1.67 105 1.34 105 1 105 C1.00222061 104.43673508 1.00444122 103.87347015 1.00672913 103.2931366 C1.13571481 68.84749999 0.82649943 34.43601103 0 0 Z " fill="#386BC1" transform="translate(270,468)"/>
<path d="M0 0 C0.33 0 0.66 0 1 0 C1.33 21.12 1.66 42.24 2 64 C1.34 64 0.68 64 0 64 C0 66.64 0 69.28 0 72 C-0.33 72 -0.66 72 -1 72 C-2.82984239 62.25750184 -3.44722698 52.70455077 -3.68798828 42.81542969 C-3.75009962 40.37107971 -3.83335033 37.92803749 -3.91796875 35.484375 C-4.16930415 27.04570084 -3.97761699 19.2633513 -2 11 C-1.79117188 9.85144531 -1.58234375 8.70289063 -1.3671875 7.51953125 C-0.91145833 5.01302083 -0.45572917 2.50651042 0 0 Z " fill="#3966B8" transform="translate(66,482)"/>
<path d="M0 0 C3.28200348 3.49549244 3.36214638 6.07841292 3.32470703 10.78466797 C3.32353882 11.45836426 3.32237061 12.13206055 3.32116699 12.82617188 C3.3139922 15.04849249 3.2857841 17.27003979 3.2578125 19.4921875 C3.2496715 21.04150711 3.24300999 22.59083513 3.23776245 24.14016724 C3.22065125 28.21836308 3.18641435 32.29622617 3.14770508 36.37426758 C3.08851018 42.89398056 3.05452627 49.41385949 3.02193832 55.93375015 C3.00803402 58.20598709 2.98642796 60.47805035 2.96365356 62.75021362 C2.95362275 64.15232217 2.94375694 65.55443192 2.93408203 66.95654297 C2.91717819 68.78377396 2.91717819 68.78377396 2.89993286 70.6479187 C2.9203521 73.99544814 2.9203521 73.99544814 3.56271362 77.22927856 C4.10502683 80.665468 3.28929592 82.81468067 2 86 C1.67 86 1.34 86 1 86 C-0.14053952 76.50929832 -0.12938175 67.05919377 -0.09765625 57.51953125 C-0.09578722 55.85373477 -0.09436561 54.18793773 -0.09336853 52.5221405 C-0.08958147 48.17392412 -0.07978451 43.82574205 -0.06866455 39.47753906 C-0.05836772 35.02604639 -0.05385332 30.57454807 -0.04882812 26.12304688 C-0.03815817 17.41534898 -0.02112851 8.70767878 0 0 Z M-1 86 C-0.34 86 0.32 86 1 86 C-0.45094013 89.38552696 -2.1216504 91.68132949 -5 94 C-8.25 94.75 -8.25 94.75 -11 95 C-11.33 94.34 -11.66 93.68 -12 93 C-10.730447 92.35165346 -9.45930294 91.70642185 -8.1875 91.0625 C-7.47980469 90.70285156 -6.77210938 90.34320312 -6.04296875 89.97265625 C-4 89 -4 89 -1 88 C-1 87.34 -1 86.68 -1 86 Z " fill="#2C56A7" transform="translate(212,486)"/>
<path d="M0 0 C0.433125 0.58394531 0.86625 1.16789063 1.3125 1.76953125 C7.03398574 9.331958 13.55599037 15.14676503 21 21 C22.81309859 22.45758906 24.62563027 23.91588367 26.4375 25.375 C27.95378927 26.58903061 29.47424365 27.79788893 31 29 C32.02673828 29.84304688 32.02673828 29.84304688 33.07421875 30.703125 C36.09036878 32.73428486 38.45296356 32.3669348 42 32 C45.35161246 30.61785878 45.35161246 30.61785878 48 29 C46.55813953 33.56589147 46.55813953 33.56589147 44.3125 35.3125 C41.05804297 36.28004128 38.38607655 36.25575685 35 36 C32.40234375 34.453125 32.40234375 34.453125 29.9375 32.25 C29.00421875 31.4353125 28.0709375 30.620625 27.109375 29.78125 C26.61244141 29.33523438 26.11550781 28.88921875 25.60351562 28.4296875 C23.27684208 26.35523557 20.90049358 24.34055032 18.52758789 22.31933594 C16.21700922 20.34873759 13.9183168 18.36455873 11.62109375 16.37841797 C10.01341086 15.01140327 8.37408372 13.69059821 6.73046875 12.3671875 C3.31255026 9.40401353 1.94540188 7.04045005 0 3 C0 2.01 0 1.02 0 0 Z " fill="#1A2F69" transform="translate(222,540)"/>
<path d="M0 0 C0.33 0 0.66 0 1 0 C1 17.16 1 34.32 1 52 C-1.1348917 47.7302166 -1.37479888 44.53843491 -1.484375 39.90234375 C-1.5084845 39.11283829 -1.53259399 38.32333282 -1.55743408 37.50990295 C-1.60567599 35.8381932 -1.64907948 34.16633778 -1.68798828 32.49438477 C-1.74920805 29.97015399 -1.8325097 27.44734006 -1.91796875 24.92382812 C-2.16516532 16.38445437 -2.14050668 8.34774188 0 0 Z " fill="#4174CB" transform="translate(64,493)"/>
<path d="M0 0 C0.51949219 0.69996094 1.03898438 1.39992188 1.57421875 2.12109375 C4.39912828 5.47368364 7.48203896 8.22626973 10.8125 11.0625 C11.46541016 11.6203418 12.11832031 12.17818359 12.79101562 12.75292969 C14.16215962 13.91873011 15.53606878 15.08128541 16.91259766 16.24072266 C18.29671489 17.40726637 19.67666209 18.57877711 21.05224609 19.75537109 C23.02215378 21.43604819 25.00805186 23.09554212 27 24.75 C27.5978833 25.26312744 28.1957666 25.77625488 28.81176758 26.30493164 C32.87749607 29.62453007 35.74476336 30.70506325 41 31 C41 31.33 41 31.66 41 32 C33.50620729 32.83264363 28.95734227 30.49710562 23 26 C20.5625 23.25 20.5625 23.25 19 21 C18.01 20.34 17.02 19.68 16 19 C16 18.34 16 17.68 16 17 C14.8553125 16.566875 14.8553125 16.566875 13.6875 16.125 C11 15 11 15 8 13 C8 12.34 8 11.68 8 11 C7.4225 10.773125 6.845 10.54625 6.25 10.3125 C3.3611324 8.62732723 1.8487529 6.77312935 0 4 C0 2.68 0 1.36 0 0 Z " fill="#204999" transform="translate(223,545)"/>
<path d="M0 0 C0.97639431 2.92918293 1.12136181 4.79025738 1.11352539 7.83862305 C1.11344986 8.8194133 1.11337433 9.80020355 1.11329651 10.81071472 C1.10813522 11.86704605 1.10297394 12.92337738 1.09765625 14.01171875 C1.0962413 15.09508011 1.09482635 16.17844147 1.09336853 17.29463196 C1.08776559 20.75894925 1.07521258 24.2232022 1.0625 27.6875 C1.05748538 30.03450428 1.05292241 32.38150956 1.04882812 34.72851562 C1.03779521 40.48569908 1.0210542 46.24284494 1 52 C0.34 51.67 -0.32 51.34 -1 51 C-2.43039096 46.38546896 -2.16174379 41.5033481 -2.16796875 36.71875 C-2.17129715 35.82764526 -2.17462555 34.93654053 -2.17805481 34.01843262 C-2.18310516 32.13908401 -2.18546372 30.25972648 -2.18530273 28.38037109 C-2.18749242 25.50994104 -2.20567688 22.63989355 -2.22460938 19.76953125 C-2.22754307 17.94010548 -2.22952803 16.11067788 -2.23046875 14.28125 C-2.23765427 13.42591675 -2.24483978 12.5705835 -2.25224304 11.68933105 C-2.23560338 7.33916301 -2.0336169 3.96144744 0 0 Z " fill="#5673B1" transform="translate(222,493)"/>
<path d="M0 0 C3 1 3 1 4.375 3.3125 C6.18995582 6.31415771 8.2640794 7.8556298 11 10 C11 10.66 11 11.32 11 12 C11.928125 12.28875 12.85625 12.5775 13.8125 12.875 C17 14 17 14 20 16 C22.32387947 16.39387788 24.65793749 16.73486085 27 17 C24.63169182 18.54850919 23.16454817 19 20.3125 19 C12.30006361 16.58115128 5.67651231 10.87558655 1 4 C0.3125 1.7578125 0.3125 1.7578125 0 0 Z " fill="#233874" transform="translate(70,556)"/>
<path d="M0 0 C3.2434574 3.2434574 3.9343963 7.11745905 4.08984375 11.578125 C4.07214401 13.30764226 4.0343886 15.03711918 3.97265625 16.765625 C3.88867866 19.17369465 3.88867866 19.17369465 5 22 C4.67 22.99 4.34 23.98 4 25 C4.34966965 26.90773132 4.34966965 26.90773132 5 28.875 C5.9363756 32.25843716 6.06938368 34.57797222 5 38 C2.35954321 35.35954321 2.63466546 33.90487291 2.40234375 30.21484375 C2.28342773 28.45817383 2.28342773 28.45817383 2.16210938 26.66601562 C2.08798828 25.43560547 2.01386719 24.20519531 1.9375 22.9375 C1.78146051 20.52984941 1.62393798 18.12229442 1.46484375 15.71484375 C1.35245361 13.99563721 1.35245361 13.99563721 1.23779297 12.24169922 C0.93717202 8.14350111 0.49612532 4.07876477 0 0 Z " fill="#4D7CCE" transform="translate(270,468)"/>
<path d="M0 0 C3.0196213 1.03529873 4.97265421 1.97553271 7.375 4.125 C10.8527019 6.60907278 12.79995936 6.51579447 17 6 C20.35161246 4.61785878 20.35161246 4.61785878 23 3 C21.55813953 7.56589147 21.55813953 7.56589147 19.3125 9.3125 C15.75082658 10.37137588 13.74823548 10.60455411 10 10 C6.36356448 7.6641874 3.05453031 5.06067625 0 2 C0 1.34 0 0.68 0 0 Z " fill="#243974" transform="translate(247,566)"/>
<path d="M0 0 C0.66 0.33 1.32 0.66 2 1 C1.67 1.66 1.34 2.32 1 3 C0.80619477 4.36091563 0.65739824 5.72845622 0.53515625 7.09765625 C0.45716797 7.89880859 0.37917969 8.69996094 0.29882812 9.52539062 C0.14094842 11.22031408 -0.01268081 12.9156387 -0.16210938 14.61132812 C-0.24138672 15.41119141 -0.32066406 16.21105469 -0.40234375 17.03515625 C-0.46929443 17.7712915 -0.53624512 18.50742676 -0.60522461 19.26586914 C-0.73550049 19.83813232 -0.86577637 20.41039551 -1 21 C-1.66 21.33 -2.32 21.66 -3 22 C-3 11.25862069 -3 11.25862069 -2.625 7.4375 C-2.55539063 6.67308594 -2.48578125 5.90867187 -2.4140625 5.12109375 C-2 3 -2 3 0 0 Z M-5 22 C-4.34 22.33 -3.68 22.66 -3 23 C-3.99 23.66 -4.98 24.32 -6 25 C-5.67 24.01 -5.34 23.02 -5 22 Z " fill="#517FD0" transform="translate(67,468)"/>
<path d="M0 0 C0.99 0.33 1.98 0.66 3 1 C3.94921875 3.28515625 3.94921875 3.28515625 4.6875 6.0625 C4.93886719 6.98160156 5.19023438 7.90070312 5.44921875 8.84765625 C5.63097656 9.55792969 5.81273438 10.26820313 6 11 C5.67 11.33 5.34 11.66 5 12 C4.63837971 13.32594105 4.30271961 14.65938457 4 16 C0.67424388 10.4174808 -0.46450943 6.50313209 0 0 Z " fill="#3459A4" transform="translate(66,546)"/>
<path d="M0 0 C0.33 0 0.66 0 1 0 C1 2.31 1 4.62 1 7 C0.34 7 -0.32 7 -1 7 C-1 7.66 -1 8.32 -1 9 C-3.5 10.625 -3.5 10.625 -6 12 C-6 11.01 -6 10.02 -6 9 C-6.99 8.67 -7.98 8.34 -9 8 C-7.6078125 7.4121875 -7.6078125 7.4121875 -6.1875 6.8125 C-2.75780085 4.86227892 -1.76441425 3.4359646 0 0 Z " fill="#26468D" transform="translate(212,565)"/>
<path d="M0 0 C0.53625 0.721875 1.0725 1.44375 1.625 2.1875 C3.47408016 4.37720019 4.97500986 5.8458209 7.1875 7.5625 C10.75197889 10.65171504 10.75197889 10.65171504 11 14 C10.01 13.67 9.02 13.34 8 13 C8 12.34 8 11.68 8 11 C7.4225 10.773125 6.845 10.54625 6.25 10.3125 C3.3611324 8.62732723 1.8487529 6.77312935 0 4 C0 2.68 0 1.36 0 0 Z " fill="#254F9F" transform="translate(223,545)"/>
<path d="M0 0 C0.33 0.66 0.66 1.32 1 2 C-1.68841859 4.25245881 -3.64641875 5.88213958 -7 7 C-10.625 6.25 -10.625 6.25 -14 5 C-14.33 4.01 -14.66 3.02 -15 2 C-11.37 2.66 -7.74 3.32 -4 4 C-4 3.34 -4 2.68 -4 2 C-2.68 1.34 -1.36 0.68 0 0 Z " fill="#2457AE" transform="translate(268,573)"/>
<path d="M0 0 C0.33 0.99 0.66 1.98 1 3 C-2.49087093 7.0042343 -4.64951939 8.62671065 -10 9 C-10.33 8.34 -10.66 7.68 -11 7 C-9.730447 6.35165346 -8.45930294 5.70642185 -7.1875 5.0625 C-6.47980469 4.70285156 -5.77210938 4.34320312 -5.04296875 3.97265625 C-3 3 -3 3 0 2 C0 1.34 0 0.68 0 0 Z " fill="#255BB5" transform="translate(211,572)"/>
<path d="M0 0 C2.80722691 4.21084037 1.94537893 6.11554218 1 11 C0.01 11.495 0.01 11.495 -1 12 C-1.33 8.37 -1.66 4.74 -2 1 C-1.34 0.67 -0.68 0.34 0 0 Z " fill="#3263B9" transform="translate(214,560)"/>
<path d="M0 0 C2.56761548 2.61478952 2.9956345 3.94528576 3.29296875 7.671875 C3.27316751 9.03156035 3.23759202 10.3910934 3.1875 11.75 C3.17396484 12.44738281 3.16042969 13.14476562 3.14648438 13.86328125 C3.1112945 15.57585541 3.05749155 17.28802941 3 19 C2.67 19 2.34 19 2 19 C1.66225668 16.77149723 1.3299813 14.54216533 1 12.3125 C0.814375 11.07113281 0.62875 9.82976562 0.4375 8.55078125 C0.07899589 5.64113629 -0.08942256 2.92299978 0 0 Z " fill="#4772C1" transform="translate(212,486)"/>
<path d="M0 0 C3.83039408 1.27679803 3.98757415 2.59435626 6 6 C7.62836738 7.7041054 9.28769752 9.38025441 11 11 C8.875 11 8.875 11 6 10 C0 3.60655738 0 3.60655738 0 0 Z " fill="#2A407C" transform="translate(70,556)"/>
<path d="M0 0 C1.7936743 1.1217963 3.5848773 2.24754483 5.375 3.375 C6.37273437 4.00148438 7.37046875 4.62796875 8.3984375 5.2734375 C11 7 11 7 13 9 C9.90805678 9.29240794 8.40184489 9.2622862 5.76171875 7.5390625 C5.07722656 6.90742187 4.39273438 6.27578125 3.6875 5.625 C2.99011719 4.99851562 2.29273437 4.37203125 1.57421875 3.7265625 C0 2 0 2 0 0 Z " fill="#1F4998" transform="translate(76,566)"/>
<path d="M0 0 C0.33 0.66 0.66 1.32 1 2 C-0.5 4.0625 -0.5 4.0625 -3 6 C-5.82406647 6.05928384 -8.20225927 5.55954815 -11 5 C-11 4.67 -11 4.34 -11 4 C-10.37351562 3.87882813 -9.74703125 3.75765625 -9.1015625 3.6328125 C-8.28429687 3.46523438 -7.46703125 3.29765625 -6.625 3.125 C-5.81289063 2.96257813 -5.00078125 2.80015625 -4.1640625 2.6328125 C-1.81326077 2.13341068 -1.81326077 2.13341068 0 0 Z " fill="#304686" transform="translate(269,569)"/>
<path d="M0 0 C3.3 0.33 6.6 0.66 10 1 C10 1.66 10 2.32 10 3 C6.6875 3.1875 6.6875 3.1875 3 3 C2.01 2.01 1.02 1.02 0 0 Z " fill="#122A67" transform="translate(254,573)"/>
<path d="M0 0 C2.25900493 2.25900493 2.34458029 2.94183075 2.6875 6 C2.77386719 6.70125 2.86023438 7.4025 2.94921875 8.125 C3 10 3 10 2 12 C0.40861915 7.82262526 -0.21278058 4.46839215 0 0 Z " fill="#2F519A" transform="translate(220,533)"/>
</svg>
